<svg width="1600" height="900" viewBox="0 0 1600 900" fill="none" xmlns="http://www.w3.org/2000/svg">
<rect width="1600" height="900" fill="white"/>
<g font-family="Arial, Helvetica, sans-serif" font-size="38" fill="#333">
  <rect x="200" y="120" width="350" height="90" rx="20" fill="#E3F2FD" stroke="#1976D2" stroke-width="3"/>
  <text x="375" y="180" text-anchor="middle">💻 Portátil / equipo docente</text>
  <line x1="375" y1="210" x2="375" y2="270" stroke="#1976D2" stroke-width="4" marker-end="url(#arrow)"/>

  <rect x="200" y="270" width="350" height="90" rx="20" fill="#E8F5E9" stroke="#388E3C" stroke-width="3"/>
  <text x="375" y="330" text-anchor="middle">🔒 Disco cifrado</text>
  <line x1="375" y1="360" x2="375" y2="420" stroke="#388E3C" stroke-width="4" marker-end="url(#arrow)"/>

  <rect x="200" y="420" width="350" height="90" rx="20" fill="#FFF3E0" stroke="#F57C00" stroke-width="3"/>
  <text x="375" y="480" text-anchor="middle">🛡️ Protección ante acceso no autorizado</text>

  <rect x="700" y="200" width="260" height="70" rx="15" fill="#F3E5F5" stroke="#8E24AA" stroke-width="2"/>
  <text x="830" y="245" text-anchor="middle" font-size="30">🍎 Mac → FileVault</text>

  <rect x="700" y="300" width="260" height="70" rx="15" fill="#E0F7FA" stroke="#00838F" stroke-width="2"/>
  <text x="830" y="345" text-anchor="middle" font-size="30">🪟 Windows → BitLocker</text>

  <rect x="700" y="400" width="260" height="70" rx="15" fill="#F1F8E9" stroke="#689F38" stroke-width="2"/>
  <text x="830" y="445" text-anchor="middle" font-size="30">🐧 Linux → cifrado en instalación</text>
</g>
<defs>
  <marker id="arrow" markerWidth="10" markerHeight="10" refX="5" refY="5" orient="auto" markerUnits="strokeWidth">
    <path d="M0,0 L0,10 L10,5 z" fill="#1976D2" />
  </marker>
</defs>
</svg>